<svg width="40" height="36" viewBox="0 0 40 36" fill="none" xmlns="http://www.w3.org/2000/svg">
<path d="M18 36V33H35V17.8C35 15.8667 34.5833 14.0083 33.75 12.225C32.9167 10.4417 31.8 8.86667 30.4 7.5C29 6.13333 27.4 5.04167 25.6 4.225C23.8 3.40833 21.9333 3 20 3C18.0667 3 16.2 3.40833 14.4 4.225C12.6 5.04167 11 6.13333 9.6 7.5C8.2 8.86667 7.08333 10.4417 6.25 12.225C5.41667 14.0083 5 15.8667 5 17.8V30H4C2.9 30 1.95833 29.6083 1.175 28.825C0.391667 28.0417 0 27.1 0 26V22C0 21.2333 0.183334 20.5583 0.55 19.975C0.916667 19.3917 1.4 18.9167 2 18.55L2.15 15.9C2.45 13.4667 3.14167 11.2667 4.225 9.3C5.30833 7.33333 6.65833 5.66667 8.275 4.3C9.89167 2.93333 11.7083 1.875 13.725 1.125C15.7417 0.375 17.8333 0 20 0C22.2 0 24.3083 0.375 26.325 1.125C28.3417 1.875 30.15 2.94167 31.75 4.325C33.35 5.70833 34.6917 7.375 35.775 9.325C36.8583 11.275 37.55 13.45 37.85 15.85L38 18.45C38.6 18.75 39.0833 19.1917 39.45 19.775C39.8167 20.3583 40 21 40 21.7V26.3C40 27.0333 39.8167 27.6833 39.45 28.25C39.0833 28.8167 38.6 29.25 38 29.55V33C38 33.8333 37.7083 34.5417 37.125 35.125C36.5417 35.7083 35.8333 36 35 36H18ZM14 21.5C13.6 21.5 13.25 21.35 12.95 21.05C12.65 20.75 12.5 20.3833 12.5 19.95C12.5 19.55 12.65 19.2083 12.95 18.925C13.25 18.6417 13.6167 18.5 14.05 18.5C14.45 18.5 14.7917 18.6417 15.075 18.925C15.3583 19.2083 15.5 19.5667 15.5 20C15.5 20.4 15.3583 20.75 15.075 21.05C14.7917 21.35 14.4333 21.5 14 21.5ZM26 21.5C25.6 21.5 25.25 21.35 24.95 21.05C24.65 20.75 24.5 20.3833 24.5 19.95C24.5 19.55 24.65 19.2083 24.95 18.925C25.25 18.6417 25.6167 18.5 26.05 18.5C26.45 18.5 26.7917 18.6417 27.075 18.925C27.3583 19.2083 27.5 19.5667 27.5 20C27.5 20.4 27.3583 20.75 27.075 21.05C26.7917 21.35 26.4333 21.5 26 21.5ZM8.05 18.9C7.91667 16.9333 8.19167 15.15 8.875 13.55C9.55833 11.95 10.475 10.5917 11.625 9.475C12.775 8.35833 14.1 7.5 15.6 6.9C17.1 6.3 18.6 6 20.1 6C23.1333 6 25.6833 6.95833 27.75 8.875C29.8167 10.7917 31.0833 13.1833 31.55 16.05C28.4167 16.0167 25.6583 15.175 23.275 13.525C20.8917 11.875 19.05 9.73333 17.75 7.1C17.2167 9.8 16.0917 12.1917 14.375 14.275C12.6583 16.3583 10.55 17.9 8.05 18.9Z" fill="#FFD700"/>
</svg>
