<svg width="40" height="33" viewBox="0 0 40 33" fill="none" xmlns="http://www.w3.org/2000/svg">
<path d="M16.4477 23.8416C17.2189 24.6128 18.3339 24.9733 19.7925 24.923C21.2512 24.8727 22.3158 24.3278 22.9865 23.2883L33.851 6.23703L17.0009 17.2524C15.995 17.9231 15.4585 18.9961 15.3914 20.4715C15.3243 21.947 15.6764 23.0703 16.4477 23.8416ZM20.0189 0C21.9302 0 23.9254 0.310175 26.0044 0.930525C28.0834 1.55088 30.0786 2.61553 31.9899 4.12449L29.3744 5.98554C27.8655 4.97957 26.2475 4.23347 24.5206 3.74725C22.7937 3.26103 21.2931 3.01792 20.0189 3.01792C15.3243 3.01792 11.3172 4.69454 7.99749 8.04778C4.67777 11.401 3.01792 15.4752 3.01792 20.2704C3.01792 21.7793 3.2275 23.305 3.64665 24.8475C4.06581 26.39 4.66101 27.8152 5.43225 29.1229H34.5552C35.2929 27.9157 35.8797 26.5074 36.3156 24.8978C36.7515 23.2883 36.9695 21.7122 36.9695 20.1698C36.9695 18.7614 36.7599 17.2441 36.3408 15.6177C35.9216 13.9914 35.1755 12.4908 34.1025 11.116L36.0641 8.50047C37.3384 10.3783 38.294 12.2645 38.9312 14.1591C39.5683 16.0536 39.9204 17.9566 39.9874 19.868C40.0545 21.8799 39.8533 23.7745 39.3838 25.5517C38.9144 27.3289 38.227 28.972 37.3216 30.481C36.9192 31.2522 36.4917 31.7217 36.039 31.8893C35.5863 32.057 35.0246 32.1408 34.354 32.1408H5.63345C5.0634 32.1408 4.50173 31.9983 3.94844 31.7133C3.39516 31.4283 2.98439 31.0175 2.71613 30.481C1.84428 28.8714 1.17364 27.2367 0.704181 25.5769C0.234727 23.917 0 22.1482 0 20.2704C0 17.4872 0.528136 14.8632 1.58441 12.3986C2.64068 9.93398 4.07419 7.78791 5.88494 5.96039C7.69569 4.13287 9.81662 2.68259 12.2477 1.60956C14.6788 0.536518 17.2692 0 20.0189 0Z" fill="#FFD700"/>
</svg>
