<svg width="40" height="40" viewBox="0 0 40 40" fill="none" xmlns="http://www.w3.org/2000/svg">
<path d="M22.1446 30.8229L29.1272 23.8404C29.4929 23.4746 29.7589 23.0673 29.9252 22.6185C30.0914 22.1696 30.1746 21.6958 30.1746 21.197C30.1746 20.133 29.8005 19.2269 29.0524 18.4788C28.3042 17.7307 27.3982 17.3566 26.3342 17.3566C25.6692 17.3566 25.0042 17.5727 24.3392 18.005C23.6741 18.4372 22.9426 19.1355 22.1446 20.0998C21.3466 19.1355 20.6151 18.4372 19.9501 18.005C19.2851 17.5727 18.6201 17.3566 17.9551 17.3566C16.8911 17.3566 15.985 17.7307 15.2369 18.4788C14.4888 19.2269 14.1147 20.133 14.1147 21.197C14.1147 21.6958 14.1978 22.1696 14.3641 22.6185C14.5303 23.0673 14.7963 23.4746 15.1621 23.8404L22.1446 30.8229ZM23.8903 39.0524C23.2918 39.6509 22.5686 39.9501 21.7207 39.9501C20.8728 39.9501 20.1496 39.6509 19.5511 39.0524L0.84788 20.3491C0.515378 20.0166 0.29094 19.6675 0.174564 19.3017C0.0581881 18.936 0 18.5536 0 18.1546V2.99252C0 2.12801 0.282627 1.41313 0.84788 0.84788C1.41313 0.282627 2.12801 0 2.99252 0H18.1546C18.5536 0 18.9526 0.0581881 19.3516 0.174564C19.7506 0.29094 20.1164 0.515378 20.4489 0.84788L39.0524 19.4514C39.6841 20.0831 40 20.8229 40 21.6708C40 22.5187 39.6841 23.2585 39.0524 23.8903L23.8903 39.0524ZM21.8454 37.0075L37.0075 21.8454L18.1546 2.99252H2.99252V18.1546L21.8454 37.0075ZM8.22943 10.7731C8.92768 10.7731 9.5345 10.5154 10.0499 10C10.5653 9.48462 10.8229 8.87781 10.8229 8.17955C10.8229 7.4813 10.5653 6.87448 10.0499 6.3591C9.5345 5.84372 8.92768 5.58604 8.22943 5.58604C7.53117 5.58604 6.92436 5.84372 6.40898 6.3591C5.8936 6.87448 5.63591 7.4813 5.63591 8.17955C5.63591 8.87781 5.8936 9.48462 6.40898 10C6.92436 10.5154 7.53117 10.7731 8.22943 10.7731Z" fill="#FFD700"/>
</svg>
