<svg width="40" height="39" viewBox="0 0 40 39" fill="none" xmlns="http://www.w3.org/2000/svg">
<path d="M36.0594 38.9204L22.5101 25.3711L25.587 22.2942L39.1363 35.8435L36.0594 38.9204ZM4.69636 38.9204L1.61943 35.8435L17.274 20.1889L11.498 14.413L10.2564 15.6545L7.88124 13.2794V17.8677L6.5857 19.1633L0 12.5776L1.29555 11.2821H5.93792L3.34683 8.69096L10.4184 1.61943C11.0301 1.00765 11.6959 0.593793 12.4157 0.377868C13.1354 0.161944 13.9271 0.0539813 14.7908 0.0539813C15.6545 0.0539813 16.4462 0.206928 17.166 0.512821C17.8857 0.818714 18.5515 1.27755 19.1633 1.88934L13.3873 7.66532L15.9784 10.2564L14.6829 11.552L20.2969 17.166L26.8826 10.5803C26.5947 10.1125 26.3698 9.57265 26.2078 8.96086C26.0459 8.34908 25.9649 7.7013 25.9649 7.01754C25.9649 5.11021 26.6577 3.46379 28.0432 2.07827C29.4287 0.692758 31.0751 0 32.9825 0C33.5223 0 33.9811 0.0539812 34.359 0.161943C34.7368 0.269906 35.0517 0.413855 35.3036 0.593792L30.7153 5.18219L34.7638 9.23077L39.3522 4.64238C39.5322 4.93027 39.6851 5.28115 39.8111 5.69501C39.937 6.10886 40 6.5857 40 7.12551C40 9.03284 39.3072 10.6793 37.9217 12.0648C36.5362 13.4503 34.8898 14.143 32.9825 14.143C32.3347 14.143 31.7769 14.0981 31.309 14.0081C30.8412 13.9181 30.4094 13.7832 30.0135 13.6032L4.69636 38.9204Z" fill="#FFD700"/>
</svg>
